<svg xmlns="http://www.w3.org/2000/svg" width="20" height="40" fill="none"><path stroke="#555" d="M2.5 9.999a7.5 7.5 0 1 1 3.885 6.572L6.2 16.47l-.202.061-3.11.947a.3.3 0 0 1-.374-.374l.947-3.116.061-.201-.101-.185A7.468 7.468 0 0 1 2.5 10Z"/><rect width="4" height="1" x="6" y="8" fill="#555" rx=".5"/><rect width="6" height="1" x="6" y="11" fill="#555" rx=".5"/><path stroke="#A74FFF" d="M2.5 29.999a7.5 7.5 0 1 1 3.885 6.572L6.2 36.47l-.202.061-3.11.947a.3.3 0 0 1-.374-.374l.947-3.116.061-.201-.101-.185A7.468 7.468 0 0 1 2.5 30Z"/><rect width="4" height="1" x="6" y="28" fill="#A74FFF" rx=".5"/><rect width="6" height="1" x="6" y="31" fill="#A74FFF" rx=".5"/></svg>