<svg width="32" height="64" viewBox="0 0 32 64" fill="none" xmlns="http://www.w3.org/2000/svg">
<circle cx="15" cy="15" r="9" stroke="#555555" stroke-width="2"/>
<path d="M20.7374 20.6764C21.1156 20.2982 21.7247 20.285 22.119 20.6466L25.6454 23.8806C26.0645 24.265 26.0787 24.9212 25.6766 25.3234V25.3234C25.2983 25.7017 24.6891 25.7148 24.2949 25.3532L20.7685 22.1191C20.3495 21.7347 20.3353 21.0785 20.7374 20.6764V20.6764Z" fill="#555555"/>
<circle cx="15" cy="47" r="9" stroke="#A74FFF" stroke-width="2"/>
<path d="M20.7374 52.6764C21.1156 52.2982 21.7247 52.285 22.119 52.6466L25.6454 55.8806C26.0645 56.265 26.0787 56.9212 25.6766 57.3234V57.3234C25.2983 57.7017 24.6891 57.7148 24.2949 57.3532L20.7685 54.1191C20.3495 53.7347 20.3353 53.0785 20.7374 52.6764V52.6764Z" fill="#A74FFF"/>
</svg>
