<svg width="32" height="128" fill="none" xmlns="http://www.w3.org/2000/svg"><path d="M6 47.999v-.001a10 10 0 1 1 5.18 8.764l-.37-.204-.403.123-4.277 1.303a.1.1 0 0 1-.125-.125l1.303-4.284.122-.403-.202-.369A9.956 9.956 0 0 1 6 47.999Z" stroke="#fff" stroke-width="2"/><rect x="12" y="45" width="5" height="2" rx="1" fill="#fff"/><rect x="12" y="49" width="8" height="2" rx="1" fill="#fff"/><path fill-rule="evenodd" clip-rule="evenodd" d="M16.832 89.947c.148.035.3.053.454.053h7.428c.607 0 1.188-.281 1.617-.781.428-.5.669-1.178.669-1.886 0 0 0-5.333-6-5.333-1.615 0-2.796.386-3.658.951a5.851 5.851 0 0 1 1.1 1.67C18.989 84.266 19.792 84 21 84c2.26 0 3.102.928 3.507 1.647a4.043 4.043 0 0 1 .493 1.7.91.91 0 0 1-.188.57.309.309 0 0 1-.102.083h-5.863a3.072 3.072 0 0 1-.628 1.121c-.38.429-.865.714-1.387.826ZM21.5 79a1.5 1.5 0 1 0 0-3 1.5 1.5 0 0 0 0 3Zm0 2a3.5 3.5 0 1 0 0-7 3.5 3.5 0 0 0 0 7Z" fill="#333"/><path fill-rule="evenodd" clip-rule="evenodd" d="M7 87.014v-.004c0-.016.003-.051.007-.102a4.64 4.64 0 0 1 .596-1.9C8.116 84.128 9.205 83 12 83c2.796 0 3.884 1.128 4.397 2.008A4.64 4.64 0 0 1 17 87.014a1.2 1.2 0 0 1-.276.779c-.148.166-.295.207-.39.207H7.666c-.096 0-.243-.04-.391-.207a1.201 1.201 0 0 1-.276-.78ZM19 87c0 .796-.281 1.559-.781 2.121-.5.563-1.178.879-1.886.879H7.667c-.708 0-1.386-.316-1.886-.879C5.281 88.56 5 87.796 5 87c0 0 0-6 7-6s7 6 7 6ZM12 78a2 2 0 1 0 0-4 2 2 0 0 0 0 4Zm0 2a4 4 0 1 0 0-8 4 4 0 0 0 0 8Z" fill="#333"/><path fill-rule="evenodd" clip-rule="evenodd" d="M16.832 121.947c.148.035.3.053.454.053h7.428c.607 0 1.188-.281 1.617-.781.428-.5.669-1.178.669-1.886 0 0 0-5.333-6-5.333-1.615 0-2.796.386-3.658.951a5.854 5.854 0 0 1 1.1 1.671c.547-.357 1.35-.622 2.558-.622 2.26 0 3.102.928 3.507 1.647a4.042 4.042 0 0 1 .493 1.701.906.906 0 0 1-.188.569.297.297 0 0 1-.093.079l-.01.004h-5.861a3.067 3.067 0 0 1-.629 1.121c-.38.429-.865.714-1.387.826ZM21.5 111a1.5 1.5 0 1 0 0-3 1.5 1.5 0 0 0 0 3Zm0 2a3.5 3.5 0 1 0 0-7 3.5 3.5 0 0 0 0 7Z" fill="#fff"/><path fill-rule="evenodd" clip-rule="evenodd" d="M7 119.014a4.64 4.64 0 0 1 .602-2.006C8.117 116.128 9.206 115 12 115c2.796 0 3.884 1.128 4.397 2.008a4.64 4.64 0 0 1 .603 2.006c-.003.33-.123.607-.276.779-.148.166-.295.207-.39.207H7.666c-.096 0-.243-.041-.391-.207a1.202 1.202 0 0 1-.276-.779ZM19 119c0 .796-.281 1.559-.781 2.121-.5.563-1.178.879-1.886.879H7.667c-.708 0-1.386-.316-1.886-.879-.5-.562-.781-1.325-.781-2.121 0 0 0-6 7-6s7 6 7 6ZM12 110a2 2 0 1 0 0-4 2 2 0 0 0 0 4Zm0 2a4 4 0 1 0 0-8 4 4 0 0 0 0 8Z" fill="#fff"/><path d="M6 15.999v-.001a10 10 0 1 1 5.18 8.764l-.37-.204-.403.123-4.277 1.303a.1.1 0 0 1-.125-.125l1.303-4.284.122-.403-.202-.369A9.956 9.956 0 0 1 6 15.999Z" stroke="#333" stroke-width="2"/><rect x="12" y="13" width="5" height="2" rx="1" fill="#333"/><rect x="12" y="17" width="8" height="2" rx="1" fill="#333"/></svg>