<svg width="32" height="64" fill="none" xmlns="http://www.w3.org/2000/svg"><path d="M13.92 6h3.52" stroke="#333" stroke-width="2" stroke-linecap="round" stroke-linejoin="round"/><path d="M9 9h14v14a2 2 0 0 1-2 2H11a2 2 0 0 1-2-2V9Z" stroke="#333" stroke-width="2"/><path d="M6 9h20M14 13v7M18 13v7" stroke="#333" stroke-width="2" stroke-linecap="round" stroke-linejoin="round"/><path d="M13.92 38h3.52" stroke="#A74FFF" stroke-width="2" stroke-linecap="round" stroke-linejoin="round"/><path d="M9 41h14v14a2 2 0 0 1-2 2H11a2 2 0 0 1-2-2V41Z" stroke="#A74FFF" stroke-width="2"/><path d="M6 41h20M14 45v7M18 45v7" stroke="#A74FFF" stroke-width="2" stroke-linecap="round" stroke-linejoin="round"/></svg>