<svg width="32" height="128" fill="none" xmlns="http://www.w3.org/2000/svg"><path d="M11 6H7a1 1 0 0 0-1 1v4m15-5h4a1 1 0 0 1 1 1v4M6 21v4a1 1 0 0 0 1 1h4m15-5v4a1 1 0 0 1-1 1h-4" stroke="#333" stroke-width="2"/><path d="m25 7-5 5M12 20l-5 5" stroke="#333" stroke-width="2" stroke-linecap="round"/><path d="M26 75h-4a1 1 0 0 1-1-1v-4M6 85h4a1 1 0 0 1 1 1v4M26 85h-4a1 1 0 0 0-1 1v4M6 75h4a1 1 0 0 0 1-1v-4" stroke="#333" stroke-width="2"/><path d="M11 38H7a1 1 0 0 0-1 1v4m15-5h4a1 1 0 0 1 1 1v4M6 53v4a1 1 0 0 0 1 1h4m15-5v4a1 1 0 0 1-1 1h-4" stroke="#AC5AFF" stroke-width="2"/><path d="m25 39-5 5M12 52l-5 5" stroke="#AC5AFF" stroke-width="2" stroke-linecap="round"/><path d="M26 107h-4a1 1 0 0 1-1-1v-4M6 117h4a1 1 0 0 1 1 1v4M26 117h-4a1 1 0 0 0-1 1v4M6 107h4a1 1 0 0 0 1-1v-4" stroke="#AC5AFF" stroke-width="2"/></svg>