<svg width="32" height="64" fill="none" xmlns="http://www.w3.org/2000/svg"><path d="M13.263 18.843 25.421 6.686M14.57 18.659l1.926 6.55c.268.912 1.54.97 1.89.084l6.769-17.15c.321-.813-.484-1.618-1.297-1.297l-17.3 6.829c-.868.343-.835 1.583.051 1.879l7.317 2.439a1 1 0 0 1 .643.666Z" stroke="#333" stroke-width="2"/><path d="m13.263 50.843 12.158-12.157M14.57 50.659l1.926 6.55c.268.912 1.54.97 1.89.084l6.769-17.15c.321-.813-.484-1.618-1.297-1.297l-17.3 6.829c-.868.343-.835 1.583.051 1.879l7.317 2.439a1 1 0 0 1 .643.666Z" stroke="#fff" stroke-width="2"/></svg>