<svg width="20" height="40" fill="none" xmlns="http://www.w3.org/2000/svg"><path d="M18.5 7.65c0-2.963-2.268-5.15-4.678-5.15-1.58 0-3.028.842-3.822 2.121A4.528 4.528 0 0 0 6.178 2.5C3.768 2.5 1.5 4.687 1.5 7.65c0 1.15.434 2.304 1.068 3.373.636 1.073 1.493 2.094 2.388 2.99a21.95 21.95 0 0 0 2.661 2.264c.8.575 1.53 1 1.994 1.151a1.096 1.096 0 0 0 .378.072h.022a1.187 1.187 0 0 0 .379-.072c.465-.152 1.193-.577 1.992-1.15.822-.59 1.766-1.37 2.662-2.266.895-.895 1.752-1.916 2.388-2.99C18.066 9.955 18.5 8.8 18.5 7.65Zm-8.594 9.84Zm.187 0Z" stroke="#555"/><path d="M18.5 27.65c0-2.963-2.268-5.15-4.678-5.15-1.58 0-3.028.842-3.822 2.121A4.528 4.528 0 0 0 6.178 22.5c-2.41 0-4.678 2.187-4.678 5.15 0 1.15.434 2.304 1.068 3.373.636 1.073 1.493 2.094 2.388 2.99.895.895 1.84 1.675 2.661 2.265.8.574 1.53 1 1.994 1.15a1.096 1.096 0 0 0 .378.072h.022a1.187 1.187 0 0 0 .379-.072c.465-.152 1.193-.577 1.992-1.15.822-.59 1.766-1.37 2.662-2.266.895-.895 1.752-1.916 2.388-2.99.634-1.068 1.068-2.222 1.068-3.372Zm-8.594 9.84Zm.187 0Z" fill="#FF426F" stroke="#FF426F"/></svg>