<svg width="24" height="48" fill="none" xmlns="http://www.w3.org/2000/svg"><circle cx="12" cy="8" r="5" stroke="#A74FFF" stroke-width="2"/><path d="M12 15c-3.961 0-7.324 1.706-8.527 4.076C2.973 20.06 3.895 21 5 21h14c1.105 0 2.027-.94 1.527-1.924C19.324 16.706 15.961 15 12 15Z" stroke="#A74FFF" stroke-width="2" stroke-linecap="round"/><circle cx="12" cy="32" r="5" stroke="#B870FF" stroke-width="2"/><path d="M12 39c-3.961 0-7.324 1.706-8.527 4.076C2.973 44.06 3.895 45 5 45h14c1.105 0 2.027-.94 1.527-1.924C19.324 40.706 15.961 39 12 39Z" stroke="#B870FF" stroke-width="2" stroke-linecap="round"/></svg>