<svg width="184" height="50" fill="none" xmlns="http://www.w3.org/2000/svg"><path d="M56.203 28.813v5.796c0 1.24-.213 2.162-.64 2.766-.428.604-1.079.906-1.954.906s-1.526-.302-1.953-.906c-.427-.604-.64-1.526-.64-2.766V18.641c0-1.24.213-2.162.64-2.766.427-.615 1.078-.922 1.953-.922s1.526.307 1.953.922c.428.604.641 1.526.641 2.766v5.375h9.531V18.64c0-1.24.214-2.162.641-2.766.427-.615 1.078-.922 1.953-.922s1.526.307 1.953.922c.427.604.64 1.526.64 2.766v15.968c0 1.24-.213 2.162-.64 2.766-.427.604-1.078.906-1.953.906s-1.526-.302-1.953-.906c-.427-.604-.64-1.526-.64-2.766v-5.797h-9.532Zm22.594-1.22h6.656a3.11 3.11 0 0 0-1.031-2.14c-.625-.573-1.37-.86-2.234-.86-.855 0-1.589.272-2.204.813-.614.542-1.01 1.271-1.187 2.188Zm.062 3.298c.115.948.506 1.687 1.172 2.218.667.532 1.547.797 2.64.797.949 0 2-.27 3.157-.812 1.167-.552 1.885-.828 2.156-.828.594 0 1.079.182 1.454.547.374.364.562.833.562 1.406 0 1.083-.755 2.062-2.266 2.937-1.51.865-3.286 1.297-5.328 1.297-2.49 0-4.568-.849-6.234-2.547-1.667-1.698-2.5-3.828-2.5-6.39 0-2.573.807-4.72 2.422-6.438 1.625-1.719 3.646-2.578 6.062-2.578 2.334 0 4.287.807 5.86 2.422 1.572 1.614 2.359 3.588 2.359 5.922 0 .76-.172 1.291-.516 1.593-.343.303-1.005.454-1.984.454h-9.016Zm22.985-8.125c.26-.698.567-1.209.922-1.532.354-.323.796-.484 1.328-.484.75 0 1.349.219 1.797.656.448.427.671 1.01.671 1.75 0 .24-.036.506-.109.797a7.83 7.83 0 0 1-.312.953l-7.688 18.25c-.323.771-.65 1.302-.984 1.594a1.75 1.75 0 0 1-1.219.453c-.77 0-1.38-.219-1.828-.656-.448-.438-.672-1.031-.672-1.781 0-.282.037-.568.11-.86.072-.291.177-.578.312-.86l2.078-4.515-5.094-11.875a2.77 2.77 0 0 1-.187-.61 4.495 4.495 0 0 1-.063-.796c0-.708.235-1.302.703-1.781.47-.48 1.047-.719 1.735-.719.604 0 1.094.172 1.469.516.385.343.75.984 1.093 1.922l2.844 7.609 3.094-8.031Zm11.64 6.25v5.593c0 1.24-.213 2.162-.64 2.766-.427.604-1.078.906-1.953.906s-1.526-.302-1.953-.906c-.428-.604-.641-1.526-.641-2.766V18.891c0-1.386.265-2.339.797-2.86.531-.52 1.458-.781 2.781-.781h4.031c2.698 0 4.818.64 6.36 1.922 1.541 1.27 2.312 3 2.312 5.187 0 1.625-.484 2.985-1.453 4.078-.958 1.084-2.286 1.771-3.984 2.063l4.093 4.547c.521.573.907 1.11 1.157 1.61.26.489.39.942.39 1.359 0 .687-.234 1.265-.703 1.734-.469.469-1.057.703-1.766.703-.458 0-.901-.14-1.328-.422-.416-.281-.901-.76-1.453-1.437l-6.047-7.578Zm0-3.47h2.391c1.052 0 1.865-.244 2.437-.733.573-.49.86-1.183.86-2.079 0-.864-.281-1.53-.844-2-.562-.479-1.359-.718-2.39-.718h-2.454v5.53Zm17.782 2.048h6.656a3.112 3.112 0 0 0-1.031-2.14c-.625-.574-1.37-.86-2.235-.86-.854 0-1.588.27-2.203.812-.614.542-1.01 1.271-1.187 2.188Zm.062 3.297c.115.948.505 1.687 1.172 2.218.667.532 1.547.797 2.641.797.948 0 2-.27 3.156-.812 1.167-.552 1.885-.828 2.156-.828.594 0 1.078.182 1.453.547.375.364.563.833.563 1.406 0 1.083-.755 2.062-2.266 2.937-1.51.865-3.286 1.297-5.328 1.297-2.49 0-4.568-.849-6.234-2.547-1.667-1.698-2.5-3.828-2.5-6.39 0-2.573.807-4.72 2.421-6.438 1.626-1.719 3.646-2.578 6.063-2.578 2.333 0 4.286.807 5.859 2.422 1.573 1.614 2.36 3.588 2.36 5.922 0 .76-.172 1.291-.516 1.593-.344.303-1.005.454-1.984.454h-9.016Zm34.656-13.625c0-1.25.209-2.177.625-2.782.417-.604 1.052-.906 1.907-.906.833 0 1.453.307 1.859.922.417.604.625 1.526.625 2.766v17.28c0 1.25-.203 2.178-.609 2.782-.407.594-1.032.89-1.875.89-.855 0-1.49-.301-1.907-.906-.416-.604-.625-1.526-.625-2.765V17.266Z" fill="#333"/><circle cx="154" cy="29" r="9" fill="#333"/><circle cx="154" cy="29" r="4" fill="#fff"/><path d="M158 34v-5l-2 2.454L158 34Z" fill="#fff"/><path d="M158 29h5v6.5a2.5 2.5 0 1 1-5 0V29Z" fill="#333"/><path d="M39 25a16.94 16.94 0 0 1-4.564 11.59 17.086 17.086 0 0 1-3.163 2.66A16.958 16.958 0 0 1 22 42c-9.389 0-17-7.611-17-17S12.611 8 22 8a16.92 16.92 0 0 1 9.273 2.75" stroke="#A74FFF" stroke-width="5" stroke-linecap="round"/><path d="M28.175 30.95c-3.39 3.465-8.37 3.465-11.9 0" stroke="#A74FFF" stroke-width="5" stroke-linecap="round"/><circle cx="39" cy="17" r="3" fill="#A74FFF"/></svg>